<svg width="65" height="100" viewBox="0 0 65 100" fill="none" xmlns="http://www.w3.org/2000/svg">
<g clip-path="url(#clip0_95_820)">
<path d="M62.4967 46.2679C62.4967 46.2679 59.0808 54.988 53.3758 52.1199C46.6955 48.7575 57.5621 40.5941 59.5484 36.5325C63.3963 28.672 58.8403 21.2612 52.8191 16.0461C52.8191 16.0461 54.5471 19.1636 53.9904 22.2811C52.8236 28.8635 45.1724 26.3739 45.778 20.3928C46.0319 17.8944 47.3234 15.6409 48.0805 13.2671C49.4249 8.87052 48.9932 4.12219 46.8781 0.0400848C47.54 1.95016 47.6633 4.00562 47.2343 5.98112C46.5129 9.3391 44.5177 12.2784 42.3354 14.9417C41.7431 15.672 41.1285 16.3891 40.5184 17.1061C38.737 19.1859 35.281 17.5514 35.8912 14.8793C35.8912 14.817 35.9223 14.7591 35.9357 14.7056C36.812 11.8073 38.6141 9.27615 41.0662 7.49978C35.7665 10.546 32.3951 15.2133 31.9988 21.3459C31.7761 24.8686 33.2502 30.0392 30.2173 32.7291C27.0375 35.5393 22.4548 33.2146 23.537 27.8302C24.1605 24.7127 26.895 22.437 26.8905 22.4414C19.177 25.1759 16.1397 34.6887 14.14 41.8144C13.0934 45.5375 12.7282 49.8709 11.2274 53.4292C9.44598 57.6245 5.05478 57.4374 3.12194 53.1219C1.78587 50.2049 2.72557 46.7845 2.72557 46.7845C0.498795 52.7122 0 66.585 0 67.9122C0 76.4236 3.38114 84.5864 9.39961 90.6049C15.4181 96.6233 23.5809 100.004 32.0923 100.004C40.6037 100.004 48.7665 96.6233 54.7849 90.6049C60.8034 84.5864 64.1846 76.4236 64.1846 67.9122C64.1846 66.7275 62.4967 46.2679 62.4967 46.2679Z" fill="url(#paint0_linear_95_820)"/>
<path d="M49.5947 59.8824C49.5947 59.8824 47.3412 65.6409 43.5735 63.7481C39.1556 61.5213 46.3347 56.137 47.6485 53.4604C50.187 48.272 47.1809 43.3776 43.195 39.9261C43.195 39.9261 44.3351 41.9703 43.9699 44.0456C43.1994 48.3923 38.1491 46.7489 38.5499 42.8031C38.7147 41.1508 39.5698 39.6856 40.0686 38.0823C40.957 35.1806 40.6707 32.0461 39.2714 29.3533C39.7178 30.6205 39.8011 31.9872 39.5119 33.2992C39.0354 35.526 37.7305 37.4588 36.2831 39.218C35.8912 39.6989 35.4859 40.171 35.0851 40.6431C33.9138 42.0192 31.6247 40.9281 32.0299 39.169C32.0377 39.1297 32.0481 39.091 32.0611 39.0532C32.6372 37.1394 33.8265 35.4682 35.4458 34.2968C31.9453 36.3098 29.7185 39.3916 29.4602 43.4399C29.3133 45.7647 30.2841 49.1806 28.2756 50.9531C26.178 52.8102 23.1495 51.2737 23.8577 47.7064C24.2718 45.6355 26.0844 44.1436 26.0844 44.1436C20.9584 45.925 18.9899 52.2491 17.6672 56.952C16.9769 59.4104 16.7364 62.2695 15.7433 64.621C14.5765 67.3867 11.6728 67.2575 10.399 64.4161C9.50833 62.4922 10.1363 60.2298 10.1363 60.2298C8.67106 64.1445 8.35486 73.3054 8.35486 74.1828C8.43556 79.7489 10.7033 85.0598 14.668 88.9674C18.6327 92.875 23.9759 95.0656 29.5426 95.0656C35.1093 95.0656 40.4525 92.875 44.4172 88.9674C48.3819 85.0598 50.6497 79.7489 50.7304 74.1828C50.7081 73.4079 49.5947 59.8824 49.5947 59.8824Z" fill="url(#paint1_linear_95_820)"/>
<path d="M36.6928 73.5237C36.6928 73.5237 35.6017 76.316 33.7713 75.3986C31.6247 74.3208 35.1073 71.7066 35.7486 70.4062C36.9823 67.8855 35.5215 65.5073 33.5931 63.8372C33.9167 64.4507 34.0471 65.1478 33.9672 65.8368C33.5931 67.9434 31.1437 67.1462 31.3352 65.2311C31.4153 64.4295 31.8295 63.708 32.0745 62.942C32.5044 61.5324 32.3653 60.0106 31.687 58.7022C31.9032 59.3173 31.9433 59.9806 31.8028 60.6173C31.5156 61.6856 30.9783 62.6703 30.2351 63.4898C30.0481 63.7258 29.8521 63.9352 29.6562 64.1846C29.5343 64.3284 29.368 64.4277 29.1835 64.4668C28.999 64.5059 28.8067 64.4826 28.6369 64.4005C28.4671 64.3184 28.3295 64.1822 28.2455 64.0133C28.1615 63.8444 28.1361 63.6525 28.1731 63.4675V63.4141C28.4544 62.4851 29.0315 61.6735 29.8165 61.1027C28.989 61.531 28.2866 62.1663 27.7778 62.9468C27.2689 63.7273 26.9709 64.6263 26.9128 65.5563C26.8371 66.6875 27.3136 68.3442 26.3383 69.2082C25.363 70.0722 23.8488 69.364 24.1917 67.6316C24.3674 66.9597 24.7433 66.357 25.2694 65.9036C22.7888 66.7943 21.8268 69.8361 21.1855 72.1386C20.8471 73.3321 20.7402 74.7172 20.2503 75.8573C19.6847 77.1934 18.2729 77.1399 17.6539 75.7593C17.4055 75.1112 17.3604 74.4029 17.5247 73.7285C16.8121 75.6302 16.634 80.0748 16.634 80.5024C16.69 83.1932 17.7982 85.7549 19.721 87.6381C21.6438 89.5213 24.2281 90.576 26.9195 90.576C29.6109 90.576 32.1951 89.5213 34.1179 87.6381C36.0407 85.7549 37.149 83.1932 37.2049 80.5024C37.2361 80.0882 36.6928 73.5237 36.6928 73.5237Z" fill="url(#paint2_linear_95_820)"/>
</g>
<defs>
<linearGradient id="paint0_linear_95_820" x1="32.0923" y1="2.8906e-06" x2="32.0923" y2="100" gradientUnits="userSpaceOnUse">
<stop stop-color="#D22F02"/>
<stop offset="0.24" stop-color="#CD2D02"/>
<stop offset="0.54" stop-color="#BD2602"/>
<stop offset="0.87" stop-color="#A31C03"/>
<stop offset="1" stop-color="#971703"/>
</linearGradient>
<linearGradient id="paint1_linear_95_820" x1="16.7409" y1="42.3666" x2="44.3084" y2="90.1176" gradientUnits="userSpaceOnUse">
<stop stop-color="#FF6100"/>
<stop offset="0.29" stop-color="#FF6D01"/>
<stop offset="0.81" stop-color="#FF8B02"/>
<stop offset="1" stop-color="#FF9803"/>
</linearGradient>
<linearGradient id="paint2_linear_95_820" x1="20.7446" y1="65.0218" x2="34.1275" y2="88.1981" gradientUnits="userSpaceOnUse">
<stop offset="0.01" stop-color="#FF9803"/>
<stop offset="0.99" stop-color="#FAF154"/>
</linearGradient>
<clipPath id="clip0_95_820">
<rect width="64.1846" height="100" fill="white"/>
</clipPath>
</defs>
</svg>
