<svg width="64" height="64" viewBox="0 0 64 64" fill="none" xmlns="http://www.w3.org/2000/svg">
<path d="M24 53.3334C18.0445 53.3334 13 51.2667 8.86669 47.1334C4.73335 43.0001 2.66669 37.9556 2.66669 32.0001C2.66669 26.0445 4.73335 21.0001 8.86669 16.8667C13 12.7334 18.0445 10.6667 24 10.6667C29.9556 10.6667 35 12.7334 39.1334 16.8667C43.2667 21.0001 45.3334 26.0445 45.3334 32.0001C45.3334 37.9556 43.2667 43.0001 39.1334 47.1334C35 51.2667 29.9556 53.3334 24 53.3334ZM24 48.0001C28.4445 48.0001 32.2222 46.4445 35.3334 43.3334C38.4445 40.2223 40 36.4445 40 32.0001C40 27.5556 38.4445 23.7779 35.3334 20.6667C32.2222 17.5556 28.4445 16.0001 24 16.0001C19.5556 16.0001 15.7778 17.5556 12.6667 20.6667C9.55558 23.7779 8.00002 27.5556 8.00002 32.0001C8.00002 36.4445 9.55558 40.2223 12.6667 43.3334C15.7778 46.4445 19.5556 48.0001 24 48.0001ZM21.3334 41.3334H26.6667V28.0001H32V24.0001H16V28.0001H21.3334V41.3334ZM50.6667 24.0001L47.3334 16.6667L40 13.3334L47.3334 10.0001L50.6667 2.66675L54 10.0001L61.3334 13.3334L54 16.6667L50.6667 24.0001ZM50.6667 61.3334L47.3334 54.0001L40 50.6667L47.3334 47.3334L50.6667 40.0001L54 47.3334L61.3334 50.6667L54 54.0001L50.6667 61.3334Z" fill="#C55C17"/>
</svg>
