<svg width="48" height="48" viewBox="0 0 48 48" fill="none" xmlns="http://www.w3.org/2000/svg">
<path d="M16 24C18.1217 24 20.1566 23.1571 21.6569 21.6569C23.1571 20.1566 24 18.1217 24 16C24 13.8783 23.1571 11.8434 21.6569 10.3431C20.1566 8.84285 18.1217 8 16 8C13.8783 8 11.8434 8.84285 10.3431 10.3431C8.84285 11.8434 8 13.8783 8 16C8 18.1217 8.84285 20.1566 10.3431 21.6569C11.8434 23.1571 13.8783 24 16 24ZM34 24C35.5913 24 37.1174 23.3679 38.2426 22.2426C39.3679 21.1174 40 19.5913 40 18C40 16.4087 39.3679 14.8826 38.2426 13.7574C37.1174 12.6321 35.5913 12 34 12C32.4087 12 30.8826 12.6321 29.7574 13.7574C28.6321 14.8826 28 16.4087 28 18C28 19.5913 28.6321 21.1174 29.7574 22.2426C30.8826 23.3679 32.4087 24 34 24ZM9 28C6.24 28 4 30.24 4 33C4 33 4 42 16 42C25.512 42 27.484 36.344 27.892 34C28 33.388 28 33 28 33C28 30.24 25.76 28 23 28H9ZM31.984 34.4C31.9379 35.1251 31.8173 35.8436 31.624 36.544C31.372 37.436 30.956 38.504 30.256 39.604C31.4834 39.879 32.7383 40.0119 33.996 40C43.996 40 43.996 33 43.996 33C43.996 30.24 41.756 28 38.996 28H30.48C31.44 29.432 31.996 31.148 31.996 33V34L31.984 34.4Z" fill="#C55C17"/>
</svg>
