<svg width="48" height="48" viewBox="0 0 48 48" fill="none" xmlns="http://www.w3.org/2000/svg">
<path d="M40 4H20C18.4087 4 16.8826 4.63214 15.7574 5.75736C14.6321 6.88258 14 8.4087 14 10V24C14 25.5913 14.6321 27.1174 15.7574 28.2426C16.8826 29.3679 18.4087 30 20 30H40C41.5913 30 43.1174 29.3679 44.2426 28.2426C45.3679 27.1174 46 25.5913 46 24V10C46 8.4087 45.3679 6.88258 44.2426 5.75736C43.1174 4.63214 41.5913 4 40 4ZM42 24C42 24.5304 41.7893 25.0391 41.4142 25.4142C41.0391 25.7893 40.5304 26 40 26H20C19.4696 26 18.9609 25.7893 18.5858 25.4142C18.2107 25.0391 18 24.5304 18 24V10C18 9.46957 18.2107 8.96086 18.5858 8.58579C18.9609 8.21071 19.4696 8 20 8H40C40.5304 8 41.0391 8.21071 41.4142 8.58579C41.7893 8.96086 42 9.46957 42 10V24ZM35 16C34.2596 16.0025 33.5466 16.2806 33 16.78C32.5699 16.3891 32.0356 16.1315 31.4619 16.0386C30.8882 15.9457 30.2999 16.0214 29.7684 16.2565C29.2369 16.4916 28.7852 16.8761 28.4681 17.3631C28.151 17.8502 27.9822 18.4188 27.9822 19C27.9822 19.5812 28.151 20.1498 28.4681 20.6369C28.7852 21.1239 29.2369 21.5084 29.7684 21.7435C30.2999 21.9786 30.8882 22.0543 31.4619 21.9614C32.0356 21.8685 32.5699 21.6109 33 21.22C33.3612 21.5483 33.797 21.7834 34.2696 21.9052C34.7422 22.0269 35.2374 22.0314 35.7122 21.9185C36.187 21.8055 36.6271 21.5784 36.9942 21.2568C37.3614 20.9353 37.6446 20.529 37.8192 20.0733C37.9938 19.6175 38.0546 19.1261 37.9963 18.6415C37.938 18.157 37.7623 17.6939 37.4846 17.2926C37.2068 16.8913 36.8353 16.5638 36.4024 16.3386C35.9694 16.1133 35.488 15.9971 35 16ZM32 34C31.4696 34 30.9609 34.2107 30.5858 34.5858C30.2107 34.9609 30 35.4696 30 36V38C30 38.5304 29.7893 39.0391 29.4142 39.4142C29.0391 39.7893 28.5304 40 28 40H8C7.46957 40 6.96086 39.7893 6.58579 39.4142C6.21071 39.0391 6 38.5304 6 38V30H8C8.53043 30 9.03914 29.7893 9.41421 29.4142C9.78929 29.0391 10 28.5304 10 28C10 27.4696 9.78929 26.9609 9.41421 26.5858C9.03914 26.2107 8.53043 26 8 26H6V24C6 23.4696 6.21071 22.9609 6.58579 22.5858C6.96086 22.2107 7.46957 22 8 22C8.53043 22 9.03914 21.7893 9.41421 21.4142C9.78929 21.0391 10 20.5304 10 20C10 19.4696 9.78929 18.9609 9.41421 18.5858C9.03914 18.2107 8.53043 18 8 18C6.4087 18 4.88258 18.6321 3.75736 19.7574C2.63214 20.8826 2 22.4087 2 24V38C2 39.5913 2.63214 41.1174 3.75736 42.2426C4.88258 43.3679 6.4087 44 8 44H28C29.5913 44 31.1174 43.3679 32.2426 42.2426C33.3679 41.1174 34 39.5913 34 38V36C34 35.4696 33.7893 34.9609 33.4142 34.5858C33.0391 34.2107 32.5304 34 32 34ZM12 36H14C14.5304 36 15.0391 35.7893 15.4142 35.4142C15.7893 35.0391 16 34.5304 16 34C16 33.4696 15.7893 32.9609 15.4142 32.5858C15.0391 32.2107 14.5304 32 14 32H12C11.4696 32 10.9609 32.2107 10.5858 32.5858C10.2107 32.9609 10 33.4696 10 34C10 34.5304 10.2107 35.0391 10.5858 35.4142C10.9609 35.7893 11.4696 36 12 36Z" fill="#C55C17"/>
</svg>
